<svg width="40" height="40" viewBox="0 0 40 40" fill="none" xmlns="http://www.w3.org/2000/svg">
<path d="M0 20C0 8.95431 8.95431 0 20 0C31.0457 0 40 8.95431 40 20C40 31.0457 31.0457 40 20 40C8.95431 40 0 31.0457 0 20Z" fill="white"/>
<path fill-rule="evenodd" clip-rule="evenodd" d="M11.421 27.5528H15.0526V16.5543H11.421L11.421 27.5528Z" stroke="#007AFF" stroke-width="1.2"/>
<path fill-rule="evenodd" clip-rule="evenodd" d="M25.9474 26.3307H29.579V16.5543H25.9474V26.3307Z" stroke="#007AFF" stroke-width="1.2"/>
<path fill-rule="evenodd" clip-rule="evenodd" d="M18.6842 27.5528H22.3158V15.3323H18.6842V27.5528Z" stroke="#007AFF" stroke-width="1.2"/>
<path fill-rule="evenodd" clip-rule="evenodd" d="M9 30H32V26.1302H9V30Z" fill="white" stroke="#007AFF" stroke-width="1.2"/>
<path fill-rule="evenodd" clip-rule="evenodd" d="M9 14.4512V17.0295H32V14.4494L20.5 8L9 14.4494V14.4512Z" fill="white" stroke="#007AFF" stroke-width="1.2"/>
</svg>
