<svg width="11" height="12" viewBox="0 0 11 12" fill="none" xmlns="http://www.w3.org/2000/svg">
<path d="M9.813 5.80758L5.688 1.68258C5.523 1.51758 5.29383 1.41675 5.04175 1.41675H1.83341C1.32925 1.41675 0.916748 1.82925 0.916748 2.33341V5.54175C0.916748 5.79383 1.01758 6.023 1.18716 6.19258L5.31216 10.3176C5.47716 10.4826 5.70633 10.5834 5.95842 10.5834C6.2105 10.5834 6.43966 10.4826 6.60466 10.313L9.813 7.10466C9.98258 6.93966 10.0834 6.7105 10.0834 6.45842C10.0834 6.20633 9.978 5.97258 9.813 5.80758ZM5.95842 9.67133L1.83341 5.54175V2.33341H5.04175V2.32883L9.16675 6.45383L5.95842 9.67133Z" fill="black"/>
<path d="M2.97925 4.16675C3.35894 4.16675 3.66675 3.85894 3.66675 3.47925C3.66675 3.09955 3.35894 2.79175 2.97925 2.79175C2.59955 2.79175 2.29175 3.09955 2.29175 3.47925C2.29175 3.85894 2.59955 4.16675 2.97925 4.16675Z" fill="black"/>
</svg>
