<svg width="64" height="64" viewBox="0 0 64 64" fill="none" xmlns="http://www.w3.org/2000/svg">
<g filter="url(#filter0_d_921_1082)">
<path d="M32 59C46.9117 59 59.0001 46.9117 59.0001 32C59.0001 17.0883 46.9117 5 32 5C17.0883 5 5 17.0883 5 32C5 46.9117 17.0883 59 32 59Z" fill="white"/>
<path d="M44.0418 26.1908C44.2035 26.0565 44.2844 25.9894 44.3653 25.9222C45.4892 24.9318 46.9285 25.0409 47.8907 26.216C47.9878 26.3335 48.0363 26.3419 48.1333 26.2412C48.198 26.1657 48.2708 26.1069 48.3355 26.0314C49.0875 25.2675 50.082 25.0409 51.0119 25.469C51.9903 25.9222 52.5159 26.7196 52.524 27.836C52.5402 30.245 52.5321 32.6456 52.5321 35.0547C52.5321 35.9108 52.0227 36.448 51.206 36.448C50.8825 36.448 50.5591 36.4229 50.2357 36.4564C49.9041 36.49 49.8071 36.3809 49.8071 36.0199C49.8233 33.6697 49.8152 31.3194 49.8152 28.9692C49.8152 28.8684 49.8152 28.7761 49.8152 28.6754C49.8071 28.1298 49.5969 27.9032 49.0955 27.878C48.6427 27.8528 48.3274 28.1382 48.2789 28.6166C48.2708 28.7258 48.2789 28.8433 48.2789 28.9524C48.2789 30.9837 48.2789 33.0066 48.2789 35.0379C48.2789 35.9276 47.7856 36.448 46.9285 36.4396C46.4919 36.4312 45.9016 36.6411 45.6509 36.3473C45.4326 36.0955 45.5782 35.4995 45.5782 35.0547C45.5782 32.973 45.5782 30.883 45.5782 28.8013C45.5782 28.0626 45.1173 27.6849 44.5189 27.9367C44.1469 28.0962 44.0257 28.4068 44.0257 28.8097C44.0337 30.757 44.0257 32.696 44.0257 34.6434C44.0257 34.7945 44.0257 34.9539 44.0257 35.105C44.0014 35.9192 43.5001 36.4312 42.7238 36.4396C42.4004 36.448 42.0769 36.4145 41.7535 36.448C41.4058 36.4816 41.3007 36.3809 41.3088 35.9948C41.3249 32.696 41.3169 29.3973 41.3169 26.0901C41.3169 25.9474 41.3249 25.8131 41.3169 25.6704C41.3007 25.4858 41.3735 25.427 41.5514 25.427C42.2953 25.4354 43.0311 25.4354 43.775 25.427C43.961 25.427 44.0499 25.4774 44.0337 25.6872C44.0176 25.8383 44.0337 25.9726 44.0418 26.1908Z" fill="#02B9EF"/>
<path d="M26.9 30.5749C26.9 31.7249 26.9 32.8664 26.9 34.0164C26.8919 35.5105 26.1399 36.2827 24.7006 36.2911C24.0699 36.2911 23.4311 36.2995 22.8004 36.2911C21.5228 36.2743 20.5849 35.393 20.5202 34.0667C20.4717 33.1183 20.4636 32.1614 20.5121 31.2129C20.5768 29.8531 21.5794 28.8962 22.9055 28.8794C23.2532 28.871 23.609 28.8794 23.9567 28.8794C24.2963 28.871 24.4257 28.6695 24.4176 28.3338C24.4176 27.998 24.2721 27.847 23.9486 27.8637C23.5847 27.8721 23.2209 27.8721 22.857 27.8637C21.9676 27.847 21.4743 27.3433 21.4824 26.4368C21.4824 26.0675 21.3207 25.5722 21.5552 25.354C21.7573 25.1693 22.2182 25.2869 22.5659 25.2869C23.4715 25.2785 24.3691 25.2869 25.2747 25.2869C26.2369 25.2869 26.8919 25.9667 26.9 26.974C26.9081 28.1659 26.9 29.3746 26.9 30.5749ZM24.4257 32.4803C24.4257 32.3376 24.4257 32.2033 24.4257 32.0606C24.4257 31.2045 24.4257 31.2045 23.6009 31.238C23.1885 31.2548 22.9621 31.4731 22.954 31.9179C22.946 32.2705 22.946 32.6146 22.954 32.9672C22.9621 33.5715 23.2209 33.731 24.0618 33.7562C24.6844 33.773 24.3691 33.3197 24.4257 33.0679C24.458 32.8832 24.4176 32.6734 24.4257 32.4803Z" fill="#06306F"/>
<path d="M34.0962 29.6246C34.0962 30.9089 34.1124 32.2015 34.0881 33.4858C34.0719 34.4762 33.8455 35.3744 32.9237 35.9032C32.5518 36.113 32.1475 36.2305 31.727 36.2389C30.7971 36.2557 29.8673 36.2389 28.9374 36.2557C28.711 36.2557 28.6624 36.1718 28.6705 35.9619C28.6867 35.6094 28.6624 35.2653 28.6786 34.9127C28.6948 34.2412 29.188 33.7292 29.8349 33.704C30.2554 33.6872 30.6678 33.6956 31.0882 33.704C31.4278 33.704 31.6138 33.5613 31.6138 33.1836C31.6138 32.7975 31.4359 32.6632 31.0963 32.6548C30.5303 32.638 29.9643 32.7219 29.4064 32.5541C28.4441 32.2603 27.7407 31.4293 27.7164 30.3969C27.6679 28.7601 27.7002 27.1233 27.6921 25.4865C27.6921 25.3018 27.7487 25.2431 27.9266 25.2515C28.5897 25.2599 29.2446 25.2683 29.9077 25.2515C30.1988 25.2431 30.1583 25.411 30.1583 25.5956C30.1583 26.8295 30.1583 28.055 30.1583 29.2889C30.1583 29.8261 30.4009 30.1115 30.8537 30.1283C31.3874 30.1451 31.6219 29.9184 31.6219 29.356C31.6219 28.1138 31.63 26.8631 31.6138 25.6208C31.6138 25.327 31.6866 25.2431 31.9696 25.2515C32.5599 25.2767 33.1582 25.2851 33.7485 25.2515C34.0719 25.2347 34.1205 25.3606 34.1124 25.6544C34.0881 26.9722 34.0962 28.2984 34.0962 29.6246Z" fill="#06306F"/>
<path d="M13.4936 31.5557C13.4936 30.1875 13.4936 28.811 13.4936 27.4428C13.4936 26.0998 14.286 25.2604 15.5878 25.2772C16.4369 25.2856 17.2859 25.1764 18.1268 25.3443C19.2023 25.5626 19.8815 26.4271 19.8896 27.5771C19.8977 28.7942 19.8896 30.0113 19.8896 31.2284C19.8896 32.756 19.0244 33.6877 17.5527 33.7297C17.108 33.7465 16.6633 33.7381 16.2185 33.7297C16.0164 33.7213 15.9275 33.7885 15.9355 34.0151C15.9517 34.3509 15.9436 34.6866 15.9355 35.0224C15.9194 35.7442 15.4261 36.2646 14.7388 36.273C14.3345 36.2814 13.8251 36.4493 13.5664 36.2059C13.3238 35.9792 13.5017 35.442 13.4936 35.0391C13.4855 33.8808 13.4936 32.7141 13.4936 31.5557ZM15.9355 29.4992C15.9355 29.7678 15.9355 30.0281 15.9355 30.2967C15.9355 31.2452 15.9355 31.2452 16.8493 31.1612C17.2455 31.1276 17.4314 30.9262 17.4395 30.5149C17.4476 30.0448 17.4234 29.5664 17.4476 29.0963C17.4961 27.7366 17.2535 27.8709 16.1862 27.8625C15.9921 27.8625 15.9275 27.9212 15.9275 28.1227C15.9436 28.5759 15.9355 29.0376 15.9355 29.4992Z" fill="#06306F"/>
<path d="M36.3847 33.5702C36.3847 32.4539 36.3766 31.3291 36.3927 30.2127C36.3927 29.9525 36.3361 29.8434 36.0612 29.8518C35.6974 29.8686 35.2122 29.9777 35.0101 29.793C34.7594 29.5496 34.9534 29.0292 34.9211 28.6263C34.9211 28.6011 34.9211 28.5675 34.9211 28.5423C34.9211 28.1478 34.7998 27.6862 34.9615 27.3924C35.1233 27.0986 35.6165 27.2833 35.9642 27.191C36.6515 27.0063 37.169 26.595 37.5895 26.0242C37.8806 25.6381 38.2444 25.3611 38.7134 25.2688C38.9641 25.2184 39.1177 25.252 39.1015 25.5877C39.0773 26.0578 39.1015 26.5362 39.0935 27.0147C39.0854 27.2161 39.1581 27.2833 39.3522 27.2749C39.6756 27.2665 39.9991 27.2833 40.3225 27.2665C40.5166 27.2581 40.5813 27.3336 40.5732 27.5351C40.5651 28.2234 40.5651 28.9033 40.5732 29.5916C40.5732 29.7846 40.5247 29.8854 40.3225 29.8602C40.2821 29.8518 40.2417 29.8602 40.2012 29.8602C39.8455 29.8938 39.3522 29.6923 39.1662 29.9441C38.9883 30.1791 39.1015 30.666 39.1015 31.0437C39.1015 33.3268 39.0935 35.6015 39.1096 37.8846C39.1096 38.2036 39.0288 38.3043 38.7215 38.2791C38.4304 38.254 38.1312 38.2791 37.832 38.2707C36.9588 38.2372 36.3847 37.6244 36.3847 36.7179C36.3847 35.6687 36.3847 34.6194 36.3847 33.5702Z" fill="#02B9EF"/>
</g>
<defs>
<filter id="filter0_d_921_1082" x="0" y="0" width="64" height="64" filterUnits="userSpaceOnUse" color-interpolation-filters="sRGB">
<feFlood flood-opacity="0" result="BackgroundImageFix"/>
<feColorMatrix in="SourceAlpha" type="matrix" values="0 0 0 0 0 0 0 0 0 0 0 0 0 0 0 0 0 0 127 0" result="hardAlpha"/>
<feOffset/>
<feGaussianBlur stdDeviation="2.5"/>
<feComposite in2="hardAlpha" operator="out"/>
<feColorMatrix type="matrix" values="0 0 0 0 0 0 0 0 0 0 0 0 0 0 0 0 0 0 0.15 0"/>
<feBlend mode="normal" in2="BackgroundImageFix" result="effect1_dropShadow_921_1082"/>
<feBlend mode="normal" in="SourceGraphic" in2="effect1_dropShadow_921_1082" result="shape"/>
</filter>
</defs>
</svg>
