<svg width="40" height="28" viewBox="0 0 40 28" fill="none" xmlns="http://www.w3.org/2000/svg">
<rect x="0.482759" y="5.3104" width="34.1564" height="22.2069" rx="2.41379" stroke="#8F9397" stroke-width="0.965517"/>
<rect x="0.975586" y="8.68994" width="33.1707" height="3.86207" fill="#8F9397"/>
<rect x="3.90234" y="14.4824" width="14.6341" height="1.93103" fill="#8F9397"/>
<path d="M39.5177 9.65517C39.5177 14.7162 35.3706 18.8276 30.2444 18.8276C25.1181 18.8276 20.971 14.7162 20.971 9.65517C20.971 4.59411 25.1181 0.482759 30.2444 0.482759C35.3706 0.482759 39.5177 4.59411 39.5177 9.65517Z" fill="white" stroke="#8F9397" stroke-width="0.965517"/>
<path d="M25.4859 5.7091V6.08249L23.8396 9.82764H23.1212L24.7646 6.25221H22.6318V5.7091H25.4859ZM29.4224 8.70466C29.4224 8.96112 29.363 9.17704 29.2442 9.35242C29.1254 9.5278 28.9632 9.66075 28.7577 9.75126C28.554 9.83989 28.324 9.88421 28.0675 9.88421C27.811 9.88421 27.58 9.83989 27.3745 9.75126C27.1689 9.66075 27.0068 9.5278 26.8879 9.35242C26.7691 9.17704 26.7097 8.96112 26.7097 8.70466C26.7097 8.53494 26.7427 8.38125 26.8087 8.24359C26.8747 8.10404 26.9681 7.98429 27.0888 7.88434C27.2114 7.78251 27.3547 7.70425 27.5187 7.64957C27.6847 7.59488 27.8657 7.56753 28.0618 7.56753C28.3221 7.56753 28.555 7.61562 28.7605 7.7118C28.9661 7.80797 29.1273 7.94092 29.2442 8.11064C29.363 8.28036 29.4224 8.47836 29.4224 8.70466ZM28.7379 8.67071C28.7379 8.53305 28.7096 8.41236 28.653 8.30864C28.5965 8.20493 28.5173 8.12478 28.4154 8.06821C28.3136 8.01163 28.1957 7.98335 28.0618 7.98335C27.9261 7.98335 27.8082 8.01163 27.7083 8.06821C27.6083 8.12478 27.5301 8.20493 27.4735 8.30864C27.4188 8.41236 27.3915 8.53305 27.3915 8.67071C27.3915 8.81026 27.4188 8.93095 27.4735 9.03278C27.5282 9.13273 27.6064 9.2091 27.7083 9.2619C27.8101 9.31471 27.9298 9.34111 28.0675 9.34111C28.2052 9.34111 28.324 9.31471 28.4239 9.2619C28.5239 9.2091 28.6012 9.13273 28.6559 9.03278C28.7106 8.93095 28.7379 8.81026 28.7379 8.67071ZM29.3291 6.79248C29.3291 6.99803 29.2744 7.18095 29.165 7.34124C29.0575 7.50153 28.9086 7.62788 28.7181 7.72028C28.5276 7.8108 28.3108 7.85606 28.0675 7.85606C27.8224 7.85606 27.6036 7.8108 27.4113 7.72028C27.2208 7.62788 27.0709 7.50153 26.9615 7.34124C26.854 7.18095 26.8003 6.99803 26.8003 6.79248C26.8003 6.54733 26.854 6.34084 26.9615 6.173C27.0709 6.00328 27.2208 5.87411 27.4113 5.78548C27.6017 5.69684 27.8195 5.65253 28.0647 5.65253C28.3098 5.65253 28.5276 5.69684 28.7181 5.78548C28.9086 5.87411 29.0575 6.00328 29.165 6.173C29.2744 6.34084 29.3291 6.54733 29.3291 6.79248ZM28.6474 6.81511C28.6474 6.69253 28.6229 6.58505 28.5738 6.49264C28.5267 6.39835 28.4597 6.32481 28.373 6.27201C28.2863 6.2192 28.1835 6.1928 28.0647 6.1928C27.9459 6.1928 27.8431 6.21826 27.7563 6.26918C27.6696 6.32009 27.6027 6.39175 27.5555 6.48416C27.5084 6.57656 27.4848 6.68688 27.4848 6.81511C27.4848 6.94146 27.5084 7.05177 27.5555 7.14606C27.6027 7.23847 27.6696 7.31107 27.7563 7.36387C27.845 7.41667 27.9487 7.44307 28.0675 7.44307C28.1863 7.44307 28.2891 7.41667 28.3758 7.36387C28.4626 7.31107 28.5295 7.23847 28.5767 7.14606C28.6238 7.05177 28.6474 6.94146 28.6474 6.81511ZM31.509 7.46005H31.9163C32.0747 7.46005 32.2058 7.4327 32.3095 7.37801C32.4151 7.32333 32.4934 7.2479 32.5443 7.15172C32.5952 7.05555 32.6207 6.94523 32.6207 6.82077C32.6207 6.69065 32.5971 6.57939 32.5499 6.48698C32.5047 6.3927 32.4349 6.32009 32.3406 6.26918C32.2482 6.21826 32.1304 6.1928 31.987 6.1928C31.8663 6.1928 31.757 6.21732 31.6589 6.26635C31.5627 6.31349 31.4864 6.38138 31.4298 6.47001C31.3732 6.55676 31.3449 6.66048 31.3449 6.78117H30.6604C30.6604 6.56242 30.7179 6.36818 30.8329 6.19846C30.948 6.02874 31.1045 5.89579 31.3025 5.79962C31.5024 5.70156 31.7268 5.65253 31.9757 5.65253C32.2416 5.65253 32.4736 5.69684 32.6716 5.78548C32.8715 5.87222 33.027 6.00234 33.1383 6.17583C33.2496 6.34932 33.3052 6.5643 33.3052 6.82077C33.3052 6.93769 33.2779 7.05649 33.2232 7.17718C33.1685 7.29787 33.0874 7.40819 32.9799 7.50813C32.8724 7.60619 32.7385 7.68634 32.5782 7.74857C32.4179 7.80891 32.2322 7.83909 32.021 7.83909H31.509V7.46005ZM31.509 7.99183V7.61845H32.021C32.2624 7.61845 32.4679 7.64674 32.6376 7.70331C32.8092 7.75988 32.9488 7.83814 33.0563 7.93809C33.1638 8.03615 33.242 8.14835 33.2911 8.2747C33.342 8.40105 33.3674 8.53494 33.3674 8.67637C33.3674 8.86872 33.3325 9.04033 33.2628 9.19119C33.1949 9.34016 33.0978 9.46651 32.9714 9.57023C32.8451 9.67395 32.697 9.75221 32.5273 9.80501C32.3595 9.85781 32.1766 9.88421 31.9786 9.88421C31.8013 9.88421 31.6316 9.85969 31.4694 9.81066C31.3072 9.76163 31.162 9.68903 31.0338 9.59286C30.9055 9.4948 30.8037 9.37316 30.7283 9.22796C30.6547 9.08087 30.618 8.91115 30.618 8.7188H31.2997C31.2997 8.84138 31.328 8.94981 31.3845 9.0441C31.443 9.1365 31.5241 9.2091 31.6278 9.2619C31.7334 9.31471 31.8541 9.34111 31.9899 9.34111C32.1332 9.34111 32.2567 9.31565 32.3604 9.26473C32.4641 9.21382 32.5433 9.13839 32.598 9.03844C32.6546 8.93849 32.6829 8.8178 32.6829 8.67637C32.6829 8.51608 32.6518 8.38596 32.5895 8.28602C32.5273 8.18607 32.4387 8.11252 32.3236 8.06538C32.2086 8.01635 32.0728 7.99183 31.9163 7.99183H31.509Z" fill="#8F9397"/>
<path d="M35.1221 1.93115V9.65529V17.3794" stroke="#8F9397" stroke-width="0.965517"/>
</svg>
