<svg width="64" height="64" viewBox="0 0 64 64" fill="none" xmlns="http://www.w3.org/2000/svg">
<g filter="url(#filter0_d_921_1078)">
<path d="M32 59C46.9117 59 59 46.9117 59 32C59 17.0883 46.9117 5 32 5C17.0883 5 5 17.0883 5 32C5 46.9117 17.0883 59 32 59Z" fill="white"/>
<path d="M45.2084 24.2245C42.145 22.4187 38.2277 23.4917 36.4573 26.6201L31.9947 34.5144C30.7035 36.794 32.3658 37.5906 34.2194 38.7255L38.5135 41.2564C39.9676 42.113 41.825 41.6045 42.6638 40.1215L47.2513 32.0087C48.7925 29.2825 47.878 25.7984 45.2084 24.2245Z" fill="#EA4335"/>
<path d="M40.1589 27.4918L35.8649 24.9609C33.4944 23.6171 32.152 23.5282 31.1788 25.1078L24.8456 36.3085C23.0772 39.4349 24.1299 43.4333 27.1914 45.2353C29.861 46.8091 33.2729 45.8753 34.8141 43.1491L41.2685 31.7319C42.111 30.247 41.6131 28.3483 40.1589 27.4918Z" fill="#FBBC04"/>
<path d="M40.9854 21.7342L37.9692 19.9554C34.6332 17.9891 30.3675 19.155 28.4419 22.5617L22.6994 32.7182C21.8512 34.2167 22.3548 36.1347 23.8222 36.999L27.1999 38.9904C28.8679 39.9746 30.9998 39.3907 31.9636 37.6873L38.524 26.0845C39.8835 23.6812 42.892 22.8576 45.2454 24.2458L40.9854 21.7342Z" fill="#34A853"/>
<path d="M29.2578 25.4678L25.9975 23.5498C24.5434 22.6952 22.686 23.2017 21.8473 24.6828L17.9356 31.5853C16.01 34.9824 17.1517 39.3289 20.4878 41.2894L22.97 42.7491L25.9804 44.5202L27.2869 45.2878C24.9675 43.7024 24.231 40.5257 25.6491 38.0237L26.662 36.2372L30.3711 29.6924C31.208 28.2153 30.71 26.3224 29.2578 25.4678Z" fill="#4285F4"/>
</g>
<defs>
<filter id="filter0_d_921_1078" x="0" y="0" width="64" height="64" filterUnits="userSpaceOnUse" color-interpolation-filters="sRGB">
<feFlood flood-opacity="0" result="BackgroundImageFix"/>
<feColorMatrix in="SourceAlpha" type="matrix" values="0 0 0 0 0 0 0 0 0 0 0 0 0 0 0 0 0 0 127 0" result="hardAlpha"/>
<feOffset/>
<feGaussianBlur stdDeviation="2.5"/>
<feComposite in2="hardAlpha" operator="out"/>
<feColorMatrix type="matrix" values="0 0 0 0 0 0 0 0 0 0 0 0 0 0 0 0 0 0 0.15 0"/>
<feBlend mode="normal" in2="BackgroundImageFix" result="effect1_dropShadow_921_1078"/>
<feBlend mode="normal" in="SourceGraphic" in2="effect1_dropShadow_921_1078" result="shape"/>
</filter>
</defs>
</svg>
