<svg width="38" height="38" viewBox="0 0 38 38" fill="none" xmlns="http://www.w3.org/2000/svg">
<circle cx="19" cy="19" r="19" fill="#AE285D"/>
<path d="M19.3221 3.80005C20.9048 6.38512 22.5012 8.96259 24.0667 11.5574C21.5362 15.8015 19.0423 20.0661 16.4262 24.2635C15.4224 25.8747 14.4461 27.5011 13.4538 29.1177C10.2359 29.1361 7.01796 29.1351 3.80005 29.1307C3.89825 28.9212 3.99532 28.7105 4.11407 28.5108C9.18074 20.2724 14.2668 12.0449 19.3221 3.80005Z" fill="white"/>
<path d="M19 19.0058C22.1665 19.0047 25.3331 18.9817 28.4996 19.0357C30.3852 22.4081 32.3312 25.7437 34.2 29.1253C31.0335 29.1414 27.8681 29.1287 24.7015 29.1264C22.8171 25.7426 20.8486 22.4104 19 19.0058Z" fill="white"/>
</svg>
