<svg width="30" height="30" viewBox="0 0 30 30" fill="none" xmlns="http://www.w3.org/2000/svg">
<rect width="30" height="30" rx="15" fill="white"/>
<path d="M6.57641 8.66113C5.74624 8.66113 5.06445 9.34292 5.06445 10.1731V19.6771C5.06445 20.5073 5.74624 21.1891 6.57641 21.1891H23.4244C24.2546 21.1891 24.9364 20.5073 24.9364 19.6771V10.1731C24.9364 9.34292 24.2546 8.66113 23.4244 8.66113H6.57641ZM6.57641 9.52506H23.4244C23.7908 9.52506 24.0725 9.80666 24.0725 10.1731V10.8211H5.92845V10.1731C5.92845 9.80667 6.20998 9.52506 6.57641 9.52506ZM5.92838 11.6851H24.0724V12.9811H5.92838V11.6851ZM5.92838 13.8451H24.0724V19.677C24.0724 20.0435 23.7908 20.3251 23.4243 20.3251H6.57634C6.20991 20.3251 5.9283 20.0435 5.9283 19.677L5.92838 13.8451ZM18.4564 15.5663C17.5072 15.5663 16.7283 16.3519 16.7283 17.3011C16.7283 18.2503 17.5071 19.0292 18.4564 19.0292C18.8632 19.0292 19.2394 18.8832 19.5364 18.6444C19.8324 18.8839 20.2082 19.0292 20.6164 19.0292C21.5656 19.0292 22.3444 18.2504 22.3444 17.3011C22.3444 16.3519 21.5656 15.5731 20.6164 15.5731C20.2109 15.5731 19.8383 15.7164 19.5432 15.9511C19.2456 15.7104 18.865 15.5663 18.4564 15.5663ZM18.4564 16.437C18.9387 16.437 19.3203 16.8187 19.3203 17.3009C19.3203 17.7832 18.9387 18.1583 18.4564 18.1583C17.9741 18.1583 17.5925 17.7832 17.5925 17.3009C17.5925 16.8186 17.9741 16.437 18.4564 16.437ZM20.6164 16.437C21.0987 16.437 21.4803 16.8187 21.4803 17.3009C21.4803 17.7832 21.0987 18.1649 20.6164 18.1649C20.4012 18.1649 20.207 18.0853 20.0562 17.9556C20.1407 17.7525 20.1844 17.533 20.1844 17.3008C20.1844 17.0708 20.1392 16.8477 20.0562 16.6459C20.207 16.5182 20.4012 16.437 20.6164 16.437Z" fill="#007AFF"/>
</svg>
