<svg width="24" height="23" viewBox="0 0 24 23" fill="none" xmlns="http://www.w3.org/2000/svg">
<g filter="url(#filter0_d_4820_3764)">
<rect x="1.33337" y="1.5" width="21" height="20" rx="10" fill="#5F259F"/>
<rect x="6.99988" y="4.5" width="10" height="14" rx="5" fill="#FFF8F8"/>
<path d="M11.4991 20.2498C11.2232 20.224 10.9458 20.2064 10.6713 20.1719C8.87472 19.9448 7.27447 19.2859 5.89327 18.1655C4.44945 17.0073 3.41942 15.4498 2.94596 13.7088C2.68237 12.7694 2.59141 11.7936 2.67712 10.8247C2.81936 9.13349 3.41181 7.59754 4.49074 6.24867C6.00138 4.35958 7.99921 3.20524 10.465 2.85616C13.1563 2.47455 15.5858 3.12187 17.6847 4.76288C19.4933 6.17479 20.5843 8.01237 20.9158 10.2167C21.3069 12.8161 20.6057 15.1505 18.8262 17.1603C17.3276 18.8548 15.3952 19.8329 13.0987 20.163C12.8106 20.2051 12.5183 20.2213 12.2281 20.2498H11.4991ZM9.80785 8.65901C9.06604 8.65901 8.32495 8.65901 7.58314 8.65901C7.38542 8.65901 7.31501 8.71595 7.29865 8.90167C7.28051 9.08222 7.28409 9.26416 7.30932 9.44393C7.32901 9.59542 7.40638 9.73474 7.52674 9.83545C7.64709 9.93616 7.80206 9.99125 7.96222 9.99026C8.13292 9.99365 8.30361 9.99026 8.47431 9.99026C8.68767 9.99026 8.68767 9.99026 8.68767 10.1902C8.68767 10.9471 8.68767 11.704 8.68767 12.4609C8.68722 12.763 8.72859 13.0639 8.81071 13.3557C9.03902 14.169 9.53687 14.7513 10.401 14.994C11.1229 15.1973 11.8476 15.1478 12.5603 14.9262C12.7274 14.874 12.7303 14.874 12.731 15.0428C12.731 15.5118 12.7274 15.9809 12.731 16.4499C12.7295 16.5503 12.7493 16.65 12.789 16.743C12.8287 16.8361 12.8876 16.9206 12.9623 16.9915C13.0369 17.0624 13.1257 17.1183 13.2234 17.1559C13.3211 17.1935 13.4257 17.2121 13.5311 17.2104C13.7651 17.2104 13.9998 17.2145 14.2338 17.2104C14.2742 17.2113 14.3143 17.2043 14.3518 17.1899C14.3892 17.1756 14.4232 17.1541 14.4518 17.1269C14.4803 17.0996 14.5027 17.0672 14.5177 17.0314C14.5327 16.9957 14.5399 16.9574 14.5389 16.919C14.5389 16.8634 14.5389 16.8078 14.5389 16.7522C14.5389 14.5642 14.5389 12.3769 14.5389 10.1902C14.5389 9.94078 14.5389 9.94078 14.7935 9.94078C15.0908 9.94078 15.3888 9.94078 15.6861 9.94078C15.9066 9.94078 15.9706 9.87638 15.9706 9.66287C15.9706 9.52414 15.9706 9.38474 15.9706 9.24465C15.9656 8.86507 15.6982 8.61224 15.2964 8.60885C14.945 8.60614 14.5939 8.60614 14.243 8.60885C14.1969 8.61185 14.1508 8.6041 14.1085 8.58626C14.0662 8.56843 14.0292 8.54105 14.0005 8.5065C13.8689 8.35738 13.7324 8.21165 13.598 8.06524C12.8327 7.22248 12.0658 6.38107 11.2972 5.54102C11.207 5.43337 11.0922 5.34684 10.9615 5.28809C10.8308 5.22934 10.6877 5.19992 10.5433 5.20211C10.0689 5.20753 9.64783 5.40546 9.21042 5.54577C9.07742 5.58779 9.0632 5.74912 9.15637 5.85079C9.18919 5.88523 9.22385 5.91803 9.26021 5.94907C10.2047 6.80358 11.1495 7.65764 12.0944 8.51125C12.1286 8.54175 12.1912 8.5709 12.1755 8.61767C12.1556 8.67867 12.0838 8.65359 12.0333 8.65359C11.2915 8.65359 10.5504 8.65359 9.80856 8.65359L9.80785 8.65901Z" fill="#5F259F"/>
<path d="M12.7338 11.7183C12.7338 12.2341 12.7302 12.7493 12.7338 13.2644C12.7404 13.3145 12.7272 13.3651 12.6969 13.4065C12.6665 13.4478 12.6211 13.4769 12.5695 13.4881C12.2222 13.6019 11.8535 13.6444 11.4877 13.6128C10.8654 13.5566 10.5176 13.2061 10.465 12.6049C10.4166 12.0532 10.4522 11.5007 10.4422 10.9483C10.4379 10.6772 10.4422 10.4101 10.4422 10.141C10.4422 10.0292 10.4806 9.98377 10.6037 9.98445C11.2573 9.98852 11.9109 9.98987 12.5638 9.98445C12.706 9.98445 12.7359 10.0394 12.7352 10.1593C12.7309 10.6792 12.7352 11.1991 12.7352 11.7183" fill="#5F259F"/>
</g>
<defs>
<filter id="filter0_d_4820_3764" x="0.111152" y="0.277778" width="23.4444" height="22.4444" filterUnits="userSpaceOnUse" color-interpolation-filters="sRGB">
<feFlood flood-opacity="0" result="BackgroundImageFix"/>
<feColorMatrix in="SourceAlpha" type="matrix" values="0 0 0 0 0 0 0 0 0 0 0 0 0 0 0 0 0 0 127 0" result="hardAlpha"/>
<feOffset/>
<feGaussianBlur stdDeviation="0.611111"/>
<feComposite in2="hardAlpha" operator="out"/>
<feColorMatrix type="matrix" values="0 0 0 0 0.0333333 0 0 0 0 0.0333333 0 0 0 0 0.0333333 0 0 0 0.25 0"/>
<feBlend mode="normal" in2="BackgroundImageFix" result="effect1_dropShadow_4820_3764"/>
<feBlend mode="normal" in="SourceGraphic" in2="effect1_dropShadow_4820_3764" result="shape"/>
</filter>
</defs>
</svg>
