<svg width="29" height="34" viewBox="0 0 29 34" fill="none" xmlns="http://www.w3.org/2000/svg">
<rect x="1" y="1" width="26.8506" height="32.3501" rx="0.647002" fill="#E6F2FF"/>
<rect x="1.14941" y="1" width="26.8506" height="32.3501" rx="0.647002" stroke="#007AFF" stroke-width="0.647002"/>
<path d="M4.38379 11.9004L15.3828 11.9004" stroke="#4DA3FF" stroke-width="0.970503" stroke-linecap="round" stroke-linejoin="round"/>
<path d="M4.38379 15.1345L12.4713 15.1345" stroke="#4DA3FF" stroke-width="0.970503" stroke-linecap="round" stroke-linejoin="round"/>
<path d="M4.38379 18.3684L14.4123 18.3684" stroke="#4DA3FF" stroke-width="0.970503" stroke-linecap="round" stroke-linejoin="round"/>
<path d="M4.38379 28.0754L14.4123 28.0754" stroke="#4DA3FF" stroke-width="0.970503" stroke-linecap="round" stroke-linejoin="round"/>
<path d="M4.38379 21.6025L12.1478 21.6025" stroke="#4DA3FF" stroke-width="0.970503" stroke-linecap="round" stroke-linejoin="round"/>
<path d="M4.38379 24.8416L12.1478 24.8416" stroke="#4DA3FF" stroke-width="0.970503" stroke-linecap="round" stroke-linejoin="round"/>
<path d="M19.5889 11.9005L24.4414 11.9005" stroke="#4DA3FF" stroke-width="0.970503" stroke-linecap="round" stroke-linejoin="round"/>
<path d="M19.5889 15.1345L24.4414 15.1345" stroke="#4DA3FF" stroke-width="0.970503" stroke-linecap="round" stroke-linejoin="round"/>
<path d="M19.5889 18.3685L24.4414 18.3685" stroke="#4DA3FF" stroke-width="0.970503" stroke-linecap="round" stroke-linejoin="round"/>
<path d="M19.5889 21.6025L24.4414 21.6025" stroke="#4DA3FF" stroke-width="0.970503" stroke-linecap="round" stroke-linejoin="round"/>
<path d="M19.5889 24.8415L24.4414 24.8415" stroke="#4DA3FF" stroke-width="0.970503" stroke-linecap="round" stroke-linejoin="round"/>
<path d="M19.5889 28.0755L24.4414 28.0755" stroke="#4DA3FF" stroke-width="0.970503" stroke-linecap="round" stroke-linejoin="round"/>
<path d="M12.3472 5.82388C12.3472 6.04753 12.2958 6.25284 12.1932 6.43983C12.0905 6.62314 11.9329 6.77163 11.7202 6.88529C11.5076 6.99894 11.2436 7.05577 10.9283 7.05577H10.3453V8.44165H9.40491V4.58099H10.9283C11.2363 4.58099 11.4966 4.63415 11.7092 4.74047C11.9219 4.8468 12.0813 4.99345 12.1877 5.18043C12.294 5.36742 12.3472 5.5819 12.3472 5.82388ZM10.8568 6.30784C11.0364 6.30784 11.1703 6.26567 11.2583 6.18135C11.3462 6.09702 11.3902 5.97787 11.3902 5.82388C11.3902 5.66989 11.3462 5.55074 11.2583 5.46641C11.1703 5.38208 11.0364 5.33992 10.8568 5.33992H10.3453V6.30784H10.8568ZM16.4609 4.58099L15.0915 8.44165H13.9146L12.5453 4.58099H13.5462L14.5031 7.49573L15.4655 4.58099H16.4609ZM19.6312 4.58099V5.33442H18.6083V8.44165H17.6679V5.33442H16.645V4.58099H19.6312Z" fill="#007AFF"/>
</svg>
